<?xml version="1.0" encoding="utf-8"?>
<!-- Generator: Adobe Illustrator 24.0.1, SVG Export Plug-In . SVG Version: 6.00 Build 0)  -->
<svg version="1.1" id="Calque_1" xmlns="http://www.w3.org/2000/svg" xmlns:xlink="http://www.w3.org/1999/xlink" x="0px" y="0px"
	 viewBox="0 0 437.1 430" style="enable-background:new 0 0 437.1 430;" xml:space="preserve">
<style type="text/css">
	.st0{fill:#455A64;}
	.st1{fill:#E0E0E0;}
	.st2{opacity:0.1;}
	.st3{fill:#FFFFFF;}
	.st4{fill:#263238;}
	.st5{fill:none;}
	.st6{opacity:0.3;}
	.st7{fill:#AE7461;}
	.st8{fill:#6F4439;}
	.st9{opacity:0.2;}
	.st10{fill:#FF725E;}
	.st11{font-family:'Poppins-SemiBold';}
	.st12{font-size:34px;}
	.st13{fill:#E53333;}
</style>
<title>Fichier 1mongolefiere</title>
<g id="Calque_2_1_">
	<g id="Hot_air_ballon_2">
		<path class="st0" d="M433.9,72.8c-3.9-14.2-12.1-30.9-21.8-37.8c0,0-8.6-18.4-29.4-23.3c-6.8-6.3-16.1-9.1-25.2-7.7
			c0,0-10.7-7.8-21.7-1.1c-13.6-6.5-21.1,1.7-21.1,1.7c-9.1-1.4-18.4,1.9-24.6,8.8c-13.2,5.2-24.1,15-30.7,27.5
			c-4.3,3.1-12.9,16.8-16.8,31.8s-2.1,31-2.1,31c-0.1,16,8.3,38.5,14.4,47.9c6.1,9.5,30.5,37.7,35.1,42.6s23.5,22.7,23.5,22.7
			c1.3,6.5,7.8,13.9,7.8,13.9h34c0,0,6.5-7.4,7.8-13.9c0,0,18.9-18,23.5-22.8s29-33.1,35.1-42.6s14.4-28.1,15.2-47.7
			C436.8,104,438,87.6,433.9,72.8z"/>
		<path class="st1" d="M433.9,110.7c-14.7,7.3-11.9-17-11.9-17c-16.3,18-19.3-11.9-19.3-11.9c-5.2,2.3-12.1,4.7-17.4,2.5
			s-8.6-11.2-10.7-16.5c-5.5,8-14.1,13.5-21.8,12.5S339,69.9,335,63.1c-3,7.3-11.8,18.8-20.6,18.1c-7.9-0.6-12.4-7-17.2-13.3
			c-2.7,5.1-5.4,16.6-13.7,17.4c-5.7,0.6-11.3-5.3-14.6-10c-1.3,3.6-4.7,12.5-8.5,13.1s-8.6-3.5-10.2-8c0.1,4.7-4.9,20.4-10,14
			c-0.1,6.3,0.4,8.1,0.4,8.1c0,2.5,1,11.2,1.3,14c4,1.5,10.2-10.3,10-16c1.5,4.5,7.8,8,11.6,7.4s8.1-7.8,9.4-11.4
			c3.3,4.7,9.8,12.8,15.1,10.6s10.3-9,12.2-16.8c2.2,3.1,7.8,11.9,17.2,12.8c10.4,1,16.1-7.2,18-15c2.9,7.9,7.5,16.6,16,17.5
			c12.9,1.4,19.6-10.4,20.9-13.3c1.5,5.4,3.7,13.7,9,15.9s11.1-1,16.8-5.3c0,0,3.1,21.3,19.6,8.8c0,0-3.6,18.3,11.1,11
			c0,0-4.7,12.8,2.7,8.2c2-5.5,3.4-11.2,4.4-17C432.3,121.9,433.9,110.7,433.9,110.7z"/>
		<g class="st2">
			<path class="st3" d="M394.9,54.8c4.5-1.5,7.9-6.8,6.1-11.3c2.6,3.2,8.2,2.6,11.1-0.4c1.5-1.6,2.6-3.6,3.1-5.8
				c-0.9-0.9-1.9-1.7-3-2.5c0,0-8.6-18.4-29.4-23.3c-6.8-6.3-16.1-9.1-25.2-7.7c0,0-10.7-7.8-21.8-1.1c-13.6-6.5-21.1,1.7-21.1,1.7
				c-9.1-1.4-18.4,1.9-24.6,8.8c-13.2,5.2-24.1,15-30.7,27.6c-4.2,3.1-12.9,16.8-16.8,31.8c-1.7,7-2.6,14.1-2.6,21.3
				c3.6-2.9,6-6.9,7-11.4c1-4.7,2.8-13.1,4-19c-0.3,2-0.3,4.1-0.1,6.2c0.6,4.2,3.4,8.8,8.4,9c4.2,0.1,9.8-4.8,9.2-9
				c0.8,6.4-0.9-2.8,3,2.3s11.9,7.7,16.9,3.7c3.6-2.9,4.5-7.9,5.1-12.5c1.2-10.2,4.1-12.3,4.1-12.3s3.9,11.3,9.1,14
				c5.3,2.6,11.6,2.3,16.6-0.9c8.3-5.4,10-16.6,11-26.5c1.2,7.3,4.5,14.5,10.3,19.1s14.3,6.1,20.8,2.7s10.1-12.2,6.8-18.8
				c2.4,4.1,5,8.3,8.8,11.3S390.4,56.3,394.9,54.8z"/>
		</g>
		<path class="st4" d="M363.4,212.6c-1.9-1.8-4-3.2-6.3-4.4c-2.5-1.2-5.2-2.1-8-2.6c-3.4-0.6-6.8-0.9-10.2-0.8
			c-3.4,0.1-6.8,0.5-10.2,1.2c-2.7,0.6-5.4,1.5-7.9,2.8c-2.3,1.2-4.4,2.8-6.1,4.7c0.1-0.2,0.2-0.3,0.3-0.4c0.3-0.4,0.6-0.8,1-1.2
			c1.4-1.4,2.9-2.5,4.6-3.4c2.5-1.3,5.2-2.3,8-2.9c3.4-0.8,6.8-1.2,10.3-1.2c3.5-0.1,6.9,0.2,10.4,0.9c2.8,0.6,5.5,1.5,8,2.7
			c1.7,0.9,3.3,1.9,4.7,3.2c0.4,0.3,0.8,0.7,1.1,1.1C363.2,212.4,363.3,212.5,363.4,212.6z"/>
		<path class="st4" d="M315.6,208.6c0,0-0.1-0.1-0.3-0.4s-0.5-0.6-0.9-1.1l-3.3-4.4c-2.8-3.8-6.9-9.4-11.8-16.3
			s-10.7-15.2-16.9-24.5c-3.1-4.6-6.4-9.6-9.7-14.7c-3.5-5.2-6.7-10.7-9.7-16.2c-6-11.5-10.4-23.2-12.1-34.3
			c-1.5-9.9-1.3-19.9,0.5-29.7c1.2-6.6,3-13.1,5.3-19.4c0.8-2.2,1.5-3.9,2-5.1c0.2-0.6,0.4-1,0.5-1.3s0.2-0.4,0.2-0.4s0,0.2-0.2,0.5
			s-0.3,0.8-0.5,1.3c-0.5,1.2-1.1,2.9-1.9,5.1c-2.3,6.3-4,12.7-5.2,19.3c-1.8,9.8-1.9,19.8-0.4,29.6c1.7,11.1,6.2,22.7,12.1,34.2
			c2.9,5.6,6.2,11,9.6,16.2c3.3,5.1,6.5,10,9.7,14.7c6.2,9.3,12,17.6,16.8,24.6s8.9,12.5,11.6,16.4c1.4,1.9,2.4,3.4,3.2,4.4l0.8,1.2
			C315.6,208.4,315.6,208.6,315.6,208.6z"/>
		<path class="st4" d="M313,211.2c0,0-0.1-0.1-0.3-0.2l-0.7-0.7c-0.6-0.6-1.5-1.5-2.6-2.7c-2.3-2.4-5.5-5.9-9.4-10.3l-13.7-15.5
			c-5.2-5.8-10.8-12.4-16.2-19.6c-5.1-6.7-9.8-13.8-14-21.2c-3.4-6-6.3-12.3-8.8-18.8c-1.6-4.4-3-8.8-4.2-13.3
			c-0.4-1.6-0.7-2.8-0.9-3.7l-0.2-1c0-0.1,0-0.2-0.1-0.3c0,0.1,0.1,0.2,0.1,0.3c0.1,0.2,0.1,0.6,0.3,1c0.2,0.8,0.5,2.1,1,3.7
			c0.9,3.2,2.2,7.8,4.4,13.3c2.5,6.4,5.4,12.7,8.9,18.7c4.2,7.3,8.9,14.4,14,21.1c5.4,7.2,10.9,13.8,16.1,19.6l13.6,15.5
			c3.9,4.4,7.1,8,9.3,10.4l2.6,2.8c0.3,0.3,0.5,0.6,0.7,0.7L313,211.2z"/>
		<path class="st4" d="M290.4,13.1l-0.4,0.4l-1,1.1l-1.8,1.8c-0.7,0.7-1.4,1.7-2.3,2.6c-4.7,5.7-8.4,12.2-11,19.2
			c-3.7,10.4-5.3,21.4-4.7,32.4c0.3,6.5,1.2,12.9,2.5,19.3c1.4,6.8,3.2,13.6,5.3,20.2c4.2,12.8,9.1,25.3,14.9,37.5
			c5.2,11.3,10.4,21.2,14.6,29.6s7.7,15.2,9.9,19.9c1.1,2.4,2,4.2,2.6,5.5l0.7,1.4c0.1,0.3,0.2,0.5,0.2,0.5s-0.1-0.1-0.3-0.5
			s-0.4-0.8-0.7-1.4l-2.7-5.4c-2.3-4.7-5.8-11.5-10.1-19.8s-9.5-18.3-14.7-29.6c-5.8-12.2-10.8-24.7-15-37.6
			c-2.1-6.6-3.9-13.4-5.3-20.3c-1.4-6.4-2.2-12.8-2.5-19.3c-0.6-11.1,1.1-22.1,4.8-32.5c2.6-7,6.4-13.4,11.2-19.1
			c0.9-1,1.6-1.9,2.3-2.6l1.8-1.8l1.1-1.1L290.4,13.1z"/>
		<path class="st5" d="M328.6,201.9c0,0,0-0.2-0.1-0.5l-0.3-1.5c-0.1-0.7-0.3-1.5-0.5-2.5l-0.9-3.4c-1.3-5-3.4-12.2-6.1-21.1
			s-5.8-19.5-9.1-31.3s-6.6-24.9-9.4-38.8s-4.7-27.3-4.9-39.6c0-3.1,0-6.1,0.1-9s0.4-5.7,0.7-8.5c0.6-5.1,1.5-10.1,2.7-15
			c1.7-7.2,4.7-14,8.7-20.1c0.4-0.5,0.7-1,1.1-1.5l1-1.3l0.9-1.1l0.8-0.8l1.1-1.1l0.4-0.4l-0.3,0.4c-0.3,0.3-0.6,0.7-1,1.2
			c-0.2,0.3-0.5,0.5-0.8,0.8l-0.9,1.1l-1,1.3c-0.3,0.5-0.7,1-1,1.5c-4,6.2-6.9,13-8.5,20.1c-1.2,4.9-2.1,9.9-2.6,14.9
			c-0.3,2.7-0.5,5.5-0.7,8.4s-0.1,5.9-0.1,9c0.3,12.3,2.2,25.7,5,39.6s6.1,27,9.3,38.8s6.4,22.4,9,31.4s4.7,16.1,5.9,21.2
			c0.3,1.3,0.6,2.4,0.8,3.4l0.5,2.5c0.1,0.6,0.2,1.2,0.3,1.5S328.6,201.9,328.6,201.9z"/>
		<path class="st4" d="M335,201.9c-0.1,0-0.1-44.6,0-99.6s0.4-99.6,0.5-99.6s0.2,44.6,0,99.6S335.2,201.9,335,201.9z"/>
		<path class="st4" d="M358.9,206.9c0,0,0.1-0.1,0.3-0.4l0.8-1.2l3.2-4.6c2.8-4,6.8-9.7,11.7-16.9s10.6-15.7,16.9-25.3
			c3.1-4.8,6.4-9.9,9.7-15.1c3.5-5.4,6.6-11,9.5-16.8c2.9-5.7,5.3-11.7,7.3-17.8c1.8-5.7,3.1-11.5,3.8-17.5
			c0.6-5.4,0.8-10.8,0.6-16.2c-0.2-4.7-0.7-9.4-1.5-14c-1.1-6.7-3-13.3-5.6-19.6l-1.3-2.9c-0.4-0.8-0.8-1.5-1.1-2.1l-0.7-1.3
			c-0.1-0.1-0.1-0.3-0.2-0.5c0,0,0.1,0.1,0.3,0.4l0.7,1.3c0.3,0.6,0.7,1.2,1.1,2.1l1.4,2.9c2.7,6.3,4.7,12.9,5.8,19.7
			c0.8,4.6,1.3,9.3,1.5,14c0.3,5.4,0.1,10.9-0.5,16.3c-0.7,6-1.9,11.9-3.8,17.6c-2,6.1-4.4,12.1-7.3,17.9c-2.9,5.8-6,11.4-9.5,16.8
			c-3.3,5.3-6.6,10.3-9.7,15.1c-6.3,9.6-12.1,18.1-17,25.2s-9,12.8-11.8,16.8l-3.3,4.5l-0.9,1.2C359,206.8,358.9,206.9,358.9,206.9z
			"/>
		<path class="st4" d="M361.6,209.5c0.1-0.1,0.1-0.2,0.2-0.3l0.7-0.8l2.6-2.9c2.3-2.5,5.5-6.2,9.5-10.9s8.7-10.1,13.9-16.3
			s11.3-12.5,17.1-19.8c2.8-3.5,5.5-7.2,7.9-11c2.4-3.7,4.7-7.2,6.8-10.6c3.8-6,7.2-12.3,10.3-18.7c2.1-4.3,3.8-8.8,5.2-13.4
			c0.5-1.6,0.8-2.9,1-3.8l0.3-1c0-0.1,0.1-0.2,0.1-0.3c0,0.1,0,0.2,0,0.3c-0.1,0.3-0.1,0.6-0.2,1c-0.2,0.9-0.5,2.2-1,3.8
			c-1.3,4.6-3,9.1-5.1,13.5c-3,6.5-6.4,12.7-10.2,18.8c-2.1,3.4-4.4,7-6.7,10.7c-2.4,3.8-5,7.5-7.9,11c-5.8,7.3-11.9,13.7-17.2,19.8
			l-14,16.2c-4,4.6-7.3,8.3-9.6,10.8c-1.2,1.2-2.1,2.2-2.7,2.8l-0.7,0.7C361.7,209.5,361.6,209.6,361.6,209.5z"/>
		<path class="st4" d="M382.9,11.6c0,0,0.1,0.1,0.4,0.4l1.1,1.1l1.8,1.8c0.7,0.7,1.5,1.6,2.3,2.6c4.8,5.7,8.6,12.1,11.2,19.1
			c3.6,10.4,5.2,21.4,4.5,32.4c-0.3,6.5-1.1,12.9-2.4,19.3c-1.4,6.8-3.1,13.6-5.2,20.2c-4.1,12.8-8.9,25.4-14.5,37.6
			c-5,11.3-9.9,21.4-14.1,29.8s-7.6,15.1-9.9,19.8l-2.7,5.4l-0.7,1.4c-0.2,0.3-0.3,0.5-0.3,0.5s0.1-0.2,0.2-0.5s0.4-0.8,0.7-1.4
			l2.6-5.4l9.8-19.9c4.1-8.4,9-18.4,14-29.8c5.5-12.2,10.3-24.8,14.4-37.6c2.1-6.6,3.8-13.4,5.2-20.2c1.3-6.3,2.1-12.8,2.5-19.2
			c0.7-11-0.8-21.9-4.4-32.3c-2.5-6.9-6.3-13.4-11-19.1c-0.9-1-1.6-1.9-2.3-2.6l-1.8-1.8l-1.1-1.1C383,11.7,382.9,11.6,382.9,11.6z"
			/>
		<path class="st4" d="M345.8,200.4c0,0,0-0.2,0.1-0.5s0.1-0.9,0.3-1.5s0.3-1.5,0.5-2.5s0.5-2.1,0.8-3.4c1.2-5,3.1-12.2,5.6-21.1
			s5.5-19.5,8.5-31.3s6.3-24.9,8.9-38.7s4.4-27.2,4.6-39.4c0-3-0.1-6-0.2-8.9s-0.4-5.7-0.7-8.4c-0.6-5-1.4-9.9-2.7-14.8
			c-1.7-7.1-4.6-13.8-8.7-19.9c-0.4-0.5-0.7-1-1-1.5l-1-1.3l-0.9-1.1l-0.8-0.8L358,4.2l-0.4-0.4l0.4,0.4l1.1,1.1l0.8,0.8l0.9,1
			l1,1.2c0.4,0.4,0.7,1,1.1,1.5c4.1,6,7.1,12.8,8.9,19.9c1.3,4.9,2.2,9.9,2.7,14.9c0.3,2.7,0.6,5.5,0.8,8.4s0.1,5.9,0.2,8.9
			c-0.2,12.3-2,25.6-4.6,39.5s-5.8,26.9-8.9,38.7s-6.1,22.4-8.7,31.3s-4.6,16.1-5.8,21.1l-0.8,3.3c-0.2,1-0.4,1.8-0.5,2.5
			s-0.2,1.2-0.3,1.5S345.8,200.4,345.8,200.4z"/>
		<g class="st6">
			<path d="M287.5,168.9l-1.1-1.6C286.7,167.8,287.1,168.3,287.5,168.9z"/>
		</g>
		<g class="st6">
			<path d="M318.2,164.1c-0.4-1.8-0.8-3.6-1.3-5.4C317.1,159.6,317.6,161.7,318.2,164.1z"/>
		</g>
		<g class="st6">
			<path d="M316.9,158.6c0-0.2-0.1-0.3-0.1-0.5C316.8,158.3,316.9,158.5,316.9,158.6z"/>
		</g>
		<path class="st5" d="M307.8,6.7c0,0.1-0.8,0.2-2.3,0.8c-2.1,0.7-4,1.7-5.8,2.9C295,13.3,289.5,18.9,285,26
			c-3.8,6.1-6.6,12.8-8.4,19.8c-0.5,2.1-0.9,4.3-1.2,6.4c-0.1,0.8-0.1,1.4-0.2,1.8c0,0.2,0,0.4-0.1,0.6c0-0.2,0-0.4,0-0.6
			c0-0.4,0-1,0.1-1.8c0.2-2.2,0.5-4.4,1-6.5c1.6-7.1,4.4-13.8,8.3-20c4.5-7.2,10.1-12.8,14.9-15.7c1.9-1.2,3.9-2.1,6-2.8
			c0.6-0.2,1.2-0.3,1.7-0.4C307.4,6.8,307.6,6.7,307.8,6.7z"/>
		<path class="st3" d="M311.8,11.1c0.2-0.7,0.6-1.3,1-1.8c2-2.7,4.9-4.8,8.1-5.8c0.6-0.3,1.3-0.4,2-0.4c-2.2,0.8-4.3,1.8-6.3,3.1
			C314.9,7.7,313.3,9.3,311.8,11.1z"/>
		<path class="st3" d="M261.5,44.4c0-0.3,0-0.6,0-0.8c0.1-0.7,0.2-1.5,0.4-2.2c1.3-4.9,3.9-9.2,7.6-12.6c0.6-0.5,1.1-1,1.8-1.4
			c0.2-0.2,0.5-0.3,0.7-0.4c0,0.1-0.9,0.8-2.2,2.1c-1.7,1.7-3.3,3.7-4.5,5.8c-1.3,2.1-2.3,4.3-3,6.7
			C261.8,43.2,261.6,44.4,261.5,44.4z"/>
		<path class="st3" d="M246.3,67.1c0-1.6,0.3-3.2,0.9-4.6c0.5-1.5,1.3-2.9,2.4-4c0.1,0.1-1,1.8-1.9,4.2
			C246.9,65,246.5,67.1,246.3,67.1z"/>
		<path class="st3" d="M345.3,3c-1.4,0.4-2.9,0.8-4.2,1.5c-1.3,0.8-2.5,1.7-3.6,2.7c0.7-1.4,1.9-2.5,3.3-3.1
			C342.2,3.2,343.7,2.8,345.3,3z"/>
		<path class="st3" d="M371,7.6c-0.1,0.1-1.5-0.5-3.5-0.7S364,7.1,364,7c1.1-0.5,2.4-0.7,3.6-0.5C368.8,6.5,370,6.9,371,7.6z"/>
		<path class="st4" d="M355.5,230.4c0,1.5-7.7,2.8-17.1,2.8s-17.1-1.2-17.1-2.8s7.7-2.8,17.1-2.8S355.5,228.9,355.5,230.4z"/>
		<path class="st4" d="M333,240.4c-0.6-0.3-1.2-0.8-1.7-1.3c-1-0.8-2.4-2-3.9-3.3c-3-2.6-5.4-4.9-5.2-5c0.6,0.4,1.1,0.8,1.7,1.3
			c1,0.8,2.4,2,3.9,3.3s2.9,2.5,3.8,3.4C332.1,239.4,332.6,239.9,333,240.4z"/>
		<path class="st4" d="M335.5,240.5c-0.9-1.2-1.6-2.6-2.1-4c-0.7-1.3-1.3-2.7-1.7-4.2c0.9,1.2,1.6,2.6,2.2,4
			C334.6,237.6,335.1,239.1,335.5,240.5z"/>
		<path class="st4" d="M349.5,229.6c-0.7,1.9-1.6,3.8-2.6,5.6c-0.9,1.9-1.9,3.7-3.1,5.3c0.7-1.9,1.6-3.8,2.6-5.6
			C347.3,233.1,348.3,231.3,349.5,229.6z"/>
		<path class="st4" d="M346.6,240.4c1.1-1.9,2.3-3.7,3.7-5.4c1.2-1.8,2.6-3.5,4.1-5.1c-1.1,1.9-2.3,3.7-3.7,5.4
			C349.5,237.1,348.1,238.8,346.6,240.4z"/>
		<path class="st4" d="M349.5,257.6l-2.8-16.3c0-0.2-0.2-0.3-0.4-0.3c-6.9-0.1-11.9-0.1-13.1,0l-4.4,16.3l-1-0.3l4.5-16.7l0.1-0.1
			c0.2-0.2,0.3-0.3,13.9-0.1c0.7,0,1.2,0.5,1.4,1.2l2.8,16.3L349.5,257.6z"/>
		<path class="st4" d="M333.8,258h-1c0-0.3,1.6-12.4,2.2-17.6l1,0.1C335.4,245.3,333.9,257.6,333.8,258z"/>
		
			<rect x="343.7" y="240.5" transform="matrix(0.9994 -3.594604e-02 3.594604e-02 0.9994 -8.7206 12.5317)" class="st4" width="1" height="16.6"/>
		<path class="st7" d="M326.6,258.8h25.2c0.7,0,1.3-0.6,1.3-1.3s-0.6-1.3-1.3-1.3h-25.2c-0.7,0-1.3,0.6-1.3,1.3
			S325.9,258.8,326.6,258.8z"/>
		<rect x="327.5" y="257.8" class="st7" width="23" height="14.5"/>
		<line class="st5" x1="342.6" y1="272.5" x2="327.8" y2="272.5"/>
		<path class="st8" d="M350.5,272.2c0,0.7-5.1,1.2-11.5,1.2s-11.5-0.5-11.5-1.2s5.1-1.2,11.5-1.2S350.5,271.5,350.5,272.2z"/>
		<path class="st8" d="M350.7,258c0,0.1-5.2,0.3-11.6,0.3s-11.6-0.1-11.6-0.3s5.2-0.3,11.6-0.3S350.7,257.9,350.7,258z"/>
		<g class="st9">
			<path d="M356.7,229.1c2-2.6,5.5-7.6,6.4-12.1c0,0,8.6-8.2,15.6-15c-1.1-0.1-2-0.6-2.8-1.3c-1.6-1.5-1.2-5.9,0.1-8.2
				c-1.4,1.8-3.6,4.3-4.9,3.6c-1.6-0.8-1.4-4.1-0.5-5.6s3.4-6.4,3.4-6.4c-1,1.7-3.8,5.6-5.5,6.5s-3.7,1.1-4.5-0.7
				c-0.5-1.4-0.6-3-0.4-4.5c1-3,3.1-8.8,3.1-8.8s-2.9,5.9-5.2,8s-5.4,3.9-8.2,2.5c-2.4-1.1-2.6-3.7-2.4-6.3c0.2-3.4,0.2-6.3,0.8-8.2
				c-1,2.5-1.1,5.6-2.8,7.6c-1.6,2.1-4.1,3.4-6.8,3.5c-3.2-0.2-5.8-2.7-7.1-5.6s-1.4-6.2-1.4-9.3c-0.3,4.1-0.9,8.1-1.8,12.1
				c-0.3,1.5-0.8,3.1-2,3.9c-1.6,1.1-4,0.4-5.3-1c-1.2-1.5-2.1-3.3-2.5-5.3c-0.4-1.9-1.3-3.7-2.5-5.3c1,4,1.4,8.2,1.2,12.3
				c-0.1,1.6-0.3,3.2-1.5,4.3c-1.6,1.6-4.4,1.2-6.1-0.2s-2.8-3.5-3.7-5.5s-2-4.1-3.8-5.4c1.1,3.5,2.2,6.9,3.3,10.4
				c0.4,1.3,0.8,2.8,0.1,4c-0.8,1.5-3,1.7-4.5,0.9c-1.4-0.9-2.6-2.2-3.3-3.7c-0.7-1.5-1.7-2.9-3-4c0.4,2,2,3.6,2.9,5.4
				s1.4,4.2-0.7,4.7c-1.5,0.3-3.1-0.8-4.1-2c-3-3.6-6.6-6.8-9.7-10.4c1.3,1.7,9.5,12.4,7.6,14.4c7.2,7.1,19.2,18.5,19.2,18.5
				c1.3,6.5,7.8,13.9,7.8,13.9h32.8C355,230.4,355.9,229.8,356.7,229.1z"/>
		</g>
		<g class="st9">
			<path d="M376,192.5l0.8-1C376.5,191.8,376.2,192.2,376,192.5z"/>
		</g>
	</g>
	<g id="Hot_air_ballon_1">
		<path class="st10" d="M244.2,176.8c-5-17.8-15.3-39-27.4-47.6c0,0-10.9-23.2-37-29.3c-8.6-7.9-20.3-11.5-31.8-9.8
			c0,0-13.4-9.9-27.4-1.4c-17.1-8.2-26.6,2.1-26.6,2.1c-11.5-1.7-23.1,2.4-31,11c-27.4,10.5-38.7,34.7-38.7,34.7
			c-5.3,3.9-16.2,21.2-21.2,40.1s-2.7,39-2.7,39c-0.9,21,10.5,48.5,18.2,60.4s38.5,47.6,44.2,53.7s29.6,28.7,29.6,28.7
			c1.6,8.2,9.8,17.5,9.8,17.5h42.9c0,0,8.2-9.3,9.8-17.5c0,0,23.9-22.6,29.6-28.7s36.5-41.7,44.2-53.6s18.2-35.4,19.1-60.1
			C247.8,216.1,249.4,195.5,244.2,176.8z"/>
		<g class="st9">
			<path d="M162.5,216.4c0.1-0.5,0.2-1,0.2-1.5C162.7,215.4,162.6,215.9,162.5,216.4z"/>
		</g>
		<g class="st9">
			<path d="M203.3,292.1c0,0-10.2,9.5-13.2,5.7s7.4-22,7.4-22s-6.6,7-12.9,3.1s-4.1-16.1-4.1-16.1c-1.3,3.6-6.5,4.5-9.8,2.5
				s-5-5.8-6.2-9.4c-4-12.7-3.6-26.3-1.9-39.5c-1.2,6.8-7.8,12.3-14.8,13c-7.5,0.8-15-3-19.9-8.7s-7.5-13.1-8.8-20.6
				c0.2,11.2-2,25.5-5,36.3c-2,7.2-8,13.9-19,9.2c-5.1-2.1-12.9-13.6-12.9-14c0.5,5.2,5.2,24.6,4.7,30.2c-0.5,5.2-3.4,10.4-8.5,11.4
				c-3.8,0.8-6.6-1.8-10-4.9c-2.8-2.7-13.5-20.8-15.3-24.6c2.1,3.6-0.4,11.4-4.3,12.8c-3.9,1.4-8.3,0-11.8-2.2
				c-8.3-5.2-12.9-14.5-17.2-23.3c-0.5,3.1-4.8,4.4-7.6,3s-4.4-4.5-5.5-7.5s-2.1-6.1-4.3-8.4L1,220.9c0.8,20.2,11.1,44.5,18.2,55.6
				c7.7,11.9,38,47.4,43.7,53.5s29.6,28.7,29.6,28.7c1.6,8.2,9.8,17.5,9.8,17.5h3c6.9-2.5,15-3.7,18.5-3c0.7,0.1-5.1-29.3,0.7-29.9
				c15.7-0.4,26.3,4.3,33.3,13.4c6.1-5.8,22.6-21.6,27.3-26.5c2.4-2.5,9.2-10.3,16.9-19.3C195.6,304,203.3,292.1,203.3,292.1z"/>
		</g>
		<g class="st9">
			<path class="st3" d="M195,154.4c5.7-1.9,9.9-8.6,7.7-14.2c3.3,4.1,10.3,3.2,14-0.5c1.9-2.1,3.3-4.6,3.9-7.3
				c-1.2-1.1-2.5-2.2-3.8-3.2c0,0-10.9-23.2-37-29.3c-8.6-7.9-20.3-11.5-31.8-9.8c0,0-13.4-9.9-27.4-1.4
				c-17.1-8.2-26.6,2.1-26.6,2.1c-11.5-1.7-23.1,2.4-31,11c-27.4,10.5-38.7,34.7-38.7,34.7c-5.3,3.9-16.2,21.2-21.2,40.1
				C1,185.6-0.1,194.6,0,203.6c4.5-3.6,7.6-8.7,8.8-14.3c1.2-5.9,3.5-16.5,5.1-23.9c-0.4,2.6-0.4,5.2-0.1,7.7
				c0.8,5.3,4.3,11.2,10.6,11.4c5.3,0.1,12.3-6.1,11.6-11.4c1,8.1,1.3,19.6,6.2,26s15,9.7,21.4,4.7c4.6-3.6,5.7-10,6.4-15.8
				c1.5-12.8,2.5-25.7,2.8-38.6c0.6,11.6,10.6,20.4,22.1,19.8c3.7-0.2,7.2-1.4,10.3-3.4c10.4-6.8,12.7-20.9,13.9-33.4
				c1.5,9.2,5.7,18.3,13,24c7.3,5.7,18,7.7,26.3,3.3s12.8-15.4,8.6-23.7c3.1,5.2,6.3,10.4,11,14.2S189.3,156.3,195,154.4z"/>
		</g>
		<path class="st4" d="M155.3,353.4c0,0-0.7-0.6-2-1.7c-1.8-1.5-3.8-2.8-6-3.9c-3.2-1.5-6.6-2.6-10.1-3.3c-4.3-0.8-8.6-1.1-12.9-1
			c-4.3,0.1-8.7,0.6-12.9,1.5c-3.5,0.8-6.8,1.9-10,3.5c-2.1,1.1-4.1,2.4-5.8,4c-0.5,0.4-0.9,0.9-1.4,1.4c-0.1,0.2-0.3,0.3-0.5,0.5
			c0.1-0.2,0.3-0.4,0.4-0.5c0.4-0.5,0.8-1,1.3-1.5c1.7-1.7,3.7-3.1,5.8-4.2c3.2-1.6,6.5-2.8,10-3.6c4.3-0.9,8.6-1.5,13-1.5
			c4.4-0.1,8.7,0.3,13,1.1c3.5,0.7,6.9,1.8,10.1,3.4c2.2,1.1,4.2,2.4,6,4c0.5,0.4,1,0.9,1.4,1.4C154.9,353,155.1,353.2,155.3,353.4z
			"/>
		<path class="st4" d="M95.1,348.2c0,0-0.1-0.2-0.4-0.5l-1.1-1.4l-4.1-5.5C86,336,80.8,329,74.7,320.3s-13.5-19.2-21.3-30.9
			c-3.9-5.9-8-12-12.2-18.5c-4.4-6.6-8.5-13.4-12.2-20.5c-7.5-14.4-13.1-29.2-15.3-43.3c-1.9-12.4-1.7-25.1,0.6-37.4
			c1.5-8.3,3.8-16.5,6.8-24.4c0.5-1.4,1-2.6,1.4-3.7l1.1-2.7l0.7-1.6c0.2-0.4,0.3-0.6,0.3-0.6s-0.1,0.2-0.2,0.6s-0.4,0.9-0.6,1.7
			l-1.1,2.7c-0.4,1.1-0.8,2.3-1.4,3.7c-2.9,7.9-5.1,16.1-6.6,24.4c-2.2,12.3-2.4,24.9-0.5,37.3c2.2,14,7.8,28.6,15.3,43.1
			c3.7,7,7.8,13.8,12.2,20.4c4.2,6.5,8.3,12.6,12.2,18.5c7.8,11.7,15.1,22.2,21.2,31s11.2,15.8,14.7,20.6l4,5.6l1,1.5
			C95,348.1,95.1,348.2,95.1,348.2z"/>
		<path class="st4" d="M91.7,351.6l-0.3-0.3l-0.9-0.9c-0.8-0.8-1.9-1.9-3.3-3.5c-2.9-3-6.9-7.5-11.9-13L58,314.4
			c-6.6-7.3-13.6-15.6-20.4-24.7c-6.5-8.5-12.3-17.4-17.6-26.7c-4.3-7.6-8-15.5-11.1-23.6c-2.1-5.5-3.8-11.1-5.3-16.8
			c-0.5-2-0.9-3.6-1.1-4.6c-0.1-0.5-0.2-0.9-0.3-1.2c0-0.1-0.1-0.3-0.1-0.4c0.1,0.1,0.1,0.3,0.1,0.4c0.1,0.3,0.2,0.7,0.3,1.2
			c0.3,1.1,0.6,2.6,1.2,4.6c1.1,4,2.8,9.8,5.5,16.7c3.1,8.1,6.9,16,11.2,23.6c5.3,9.2,11.2,18.1,17.6,26.6
			c6.8,9.1,13.7,17.4,20.3,24.7l17.2,19.7c4.9,5.6,8.9,10.1,11.8,13.1l3.3,3.5l0.8,0.9C91.5,351.4,91.6,351.5,91.7,351.6z"/>
		<path class="st4" d="M63.2,101.8c0,0-0.2,0.2-0.5,0.5l-1.4,1.4c-0.6,0.6-1.4,1.4-2.3,2.3s-1.8,2.1-2.9,3.3
			c-5.9,7.2-10.6,15.4-13.9,24.2c-4.6,13.1-6.7,27-6,40.8c0.4,8.2,1.5,16.3,3.2,24.3c1.8,8.6,4,17.1,6.7,25.5
			c5.3,16.1,11.6,31.9,18.8,47.3c6.6,14.2,13.1,26.7,18.4,37.3s9.7,19.1,12.6,25.1c1.4,3,2.5,5.3,3.3,6.9c0.4,0.8,0.6,1.4,0.8,1.8
			s0.3,0.6,0.3,0.6s-0.1-0.2-0.3-0.6s-0.5-1-0.9-1.8l-3.4-6.8c-2.9-5.9-7.3-14.5-12.7-25s-11.9-23.1-18.5-37.3
			c-7.3-15.4-13.6-31.2-18.9-47.4c-2.7-8.4-4.9-16.9-6.7-25.5c-1.7-8-2.8-16.2-3.2-24.4c-0.7-13.9,1.4-27.9,6.1-41
			c3.3-8.8,8.1-17,14.1-24.2c1.1-1.3,2-2.4,2.9-3.3l2.3-2.3l1.4-1.4C63.1,102,63.2,101.8,63.2,101.8z"/>
		<path class="st4" d="M111.4,339.8c0,0,0-0.2-0.1-0.6s-0.2-1.1-0.4-1.9l-0.7-3.1c-0.3-1.2-0.6-2.6-1.1-4.2
			c-1.7-6.3-4.3-15.4-7.7-26.6s-7.3-24.6-11.4-39.5s-8.3-31.4-11.8-48.9s-5.9-34.4-6.2-50c-0.1-7.3,0.2-14.7,1.1-22
			c0.7-6.4,1.8-12.7,3.4-18.9c2.9-11.4,7.2-20,11-25.3c0.5-0.7,0.9-1.3,1.3-1.9l1.3-1.6l1.1-1.4l1-1.1l1.4-1.4
			c0.3-0.3,0.5-0.5,0.5-0.5l-0.4,0.5l-1.3,1.4l-1,1.1l-1.1,1.4L89,96.9c-0.4,0.6-0.8,1.2-1.3,1.9c-3.7,5.4-7.9,14-10.8,25.3
			c-1.5,6.2-2.7,12.5-3.3,18.8c-0.8,7.3-1.2,14.6-1,21.9c0.3,15.5,2.8,32.4,6.2,49.9s7.7,34,11.8,48.9c4.1,14.9,8,28.3,11.3,39.5
			s5.9,20.3,7.5,26.7c0.4,1.6,0.7,3,1,4.2l0.7,3.1c0.1,0.8,0.3,1.5,0.3,1.9S111.4,339.8,111.4,339.8z"/>
		<path class="st4" d="M119.5,339.8c-0.1,0-0.1-56.2,0-125.6s0.4-125.6,0.6-125.6s0.1,56.2,0,125.6S119.6,339.8,119.5,339.8z"/>
		<path class="st4" d="M149.5,346.1c0,0,0.1-0.2,0.3-0.5l1.1-1.5l4-5.8c3.5-5,8.6-12.2,14.8-21.2s13.4-19.8,21.3-31.9
			c3.9-6,8-12.4,12.2-19.1c4.4-6.8,8.4-13.9,12-21.1c3.6-7.2,6.7-14.7,9.2-22.4c2.3-7.2,3.9-14.5,4.8-22c0.2-1.8,0.4-3.6,0.5-5.3
			s0.2-3.5,0.3-5.2s0-3.4,0.1-5s-0.1-3.3-0.1-4.9c-0.2-5.9-0.8-11.9-1.9-17.7c-1.4-8.5-3.8-16.8-7.1-24.8c-0.6-1.4-1.2-2.6-1.7-3.7
			s-1-1.9-1.4-2.6l-0.8-1.6c-0.2-0.4-0.3-0.6-0.3-0.6s0.1,0.2,0.3,0.5l0.9,1.6c0.4,0.7,0.9,1.6,1.4,2.6l1.7,3.7
			c3.4,7.9,5.8,16.3,7.3,24.8c1.1,5.9,1.7,11.8,1.9,17.8c0,1.6,0.2,3.2,0.1,4.9s0,3.4,0,5.1s-0.2,3.4-0.3,5.2s-0.3,3.5-0.5,5.3
			c-0.8,7.5-2.4,14.9-4.8,22.1c-2.5,7.7-5.6,15.2-9.2,22.5c-3.6,7.3-7.6,14.3-12,21.1c-4.2,6.6-8.3,13-12.3,19
			c-7.9,12.1-15.2,22.8-21.4,31.8s-11.3,16.2-14.9,21.1c-1.8,2.5-3.2,4.4-4.1,5.7l-1.1,1.5L149.5,346.1z"/>
		<path class="st4" d="M153,349.5c0.1-0.1,0.2-0.2,0.3-0.3l0.9-1c0.8-0.9,1.9-2.1,3.3-3.7c2.9-3.2,7-7.9,11.9-13.7
			s10.9-12.8,17.5-20.5s14.3-15.8,21.6-24.9c1.8-2.3,3.6-4.6,5.2-6.9s3.2-4.6,4.7-7c3-4.6,5.9-9.1,8.5-13.4
			c4.8-7.6,9.1-15.5,12.9-23.6c2.6-5.5,4.8-11.1,6.6-16.9c0.3-1,0.6-1.9,0.8-2.7l0.5-2c0.1-0.5,0.2-0.9,0.3-1.2
			c0-0.1,0.1-0.3,0.1-0.4c0,0.1,0,0.3-0.1,0.4c-0.1,0.3-0.1,0.7-0.3,1.3s-0.3,1.2-0.5,2s-0.5,1.7-0.8,2.8c-1.7,5.8-3.9,11.5-6.4,17
			c-3.8,8.1-8.1,16.1-12.9,23.7c-2.6,4.3-5.5,8.8-8.5,13.5c-1.5,2.3-3.1,4.7-4.7,7s-3.4,4.6-5.3,6.9c-7.3,9.1-15,17.3-21.6,24.9
			l-17.6,20.4c-5,5.8-9.2,10.4-12.1,13.6c-1.4,1.6-2.6,2.8-3.4,3.6l-0.9,0.9L153,349.5z"/>
		<path class="st4" d="M179.8,99.9c0,0,0.2,0.1,0.5,0.4l1.4,1.4l2.3,2.2c0.9,0.9,1.8,2,2.9,3.3c6.1,7.1,10.8,15.2,14.1,24
			c4.1,11.1,6.4,25.3,5.7,40.9c-0.4,8.2-1.4,16.3-3.1,24.3c-1.7,8.6-3.9,17.1-6.5,25.5c-5.2,16.1-11.3,32-18.3,47.4
			c-6.3,14.3-12.5,26.9-17.7,37.5l-12.5,25l-3.4,6.8l-0.9,1.8c-0.2,0.4-0.3,0.6-0.3,0.6s0.1-0.2,0.3-0.6l0.9-1.8l3.3-6.8l12.3-25.1
			c5.2-10.6,11.3-23.3,17.6-37.5c7-15.4,13-31.3,18.2-47.4c2.6-8.4,4.8-16.8,6.5-25.4c1.6-8,2.7-16.1,3.1-24.2
			c0.8-15.6-1.5-29.7-5.6-40.7c-3.2-8.7-7.9-16.9-13.9-24c-1.1-1.2-2-2.4-2.9-3.3l-2.3-2.3l-1.4-1.4
			C179.9,100.1,179.8,99.9,179.8,99.9z"/>
		<path class="st4" d="M133.1,337.9c0,0,0-0.2,0.1-0.7s0.2-1.1,0.3-1.9s0.4-1.9,0.6-3.1s0.6-2.6,1-4.2c1.5-6.3,4-15.4,7.1-26.6
			s6.9-24.5,10.8-39.4s7.9-31.3,11.2-48.8s5.5-34.3,5.8-49.6c0.1-7.3-0.3-14.6-1.1-21.8c-0.7-6.3-1.8-12.6-3.4-18.7
			c-2.9-11.3-7.2-19.8-11-25.1c-0.5-0.7-0.9-1.3-1.3-1.9l-1.3-1.6l-1.1-1.3l-1-1l-1.3-1.4c-0.3-0.3-0.4-0.5-0.4-0.5s0.2,0.2,0.5,0.5
			l1.4,1.3l1,1l1.1,1.4l1.3,1.6c0.4,0.6,0.9,1.2,1.4,1.9c3.8,5.3,8.2,13.8,11.1,25.1c1.6,6.2,2.7,12.4,3.4,18.7
			c0.9,7.2,1.3,14.5,1.2,21.8c-0.2,15.4-2.5,32.3-5.8,49.7s-7.3,33.9-11.3,48.8s-7.7,28.2-10.9,39.4s-5.7,20.3-7.3,26.6
			c-0.4,1.6-0.7,3-1,4.2l-0.7,3.1c-0.1,0.8-0.3,1.5-0.4,1.9S133.1,337.9,133.1,337.9z"/>
		<g class="st6">
			<path d="M59.5,298.2c-0.5-0.7-0.9-1.4-1.3-2C58.6,296.8,59,297.5,59.5,298.2z"/>
		</g>
		<g class="st6">
			<path d="M98.3,292.1c-0.5-2.3-1-4.6-1.7-6.8C96.9,286.5,97.5,289.1,98.3,292.1z"/>
		</g>
		<g class="st6">
			<path d="M96.6,285.3c0-0.2-0.1-0.4-0.2-0.6C96.5,284.9,96.6,285.1,96.6,285.3z"/>
		</g>
		<g class="st6">
			<path d="M176.9,338.2l-13.2,7.9c-1.2,0.7-2.7,1.4-3.9,0.7c-1.4-0.8-1.1-3-0.3-4.3s2.2-2.3,2.9-3.8c-1.6,2-3.4,3.8-5.3,5.5
				c-0.7,0.7-1.5,1.1-2.5,1.3c-1.8,0-2.4-1.9-1.6-3.5c0.8-1.6,1.8-3.1,2.8-4.5c-1.1,1.1-2.1,2-3.1,3c-0.9,1-2.3,1.5-3.6,1.3
				c-1.4-0.4-2.4-1.6-2.5-3.1c0-1.4,0.2-2.9,0.8-4.2l-2.8,5.8c2.4-5.7,5.6-11.2,8.1-16.9c-2.8,3.9-6.4,7.5-10.8,5.6s-4-6.4-3.2-11.1
				s3.4-11.2,3.2-15.1c-2,5-3.7,10.2-6.8,13.7s-9.1,4.8-12.2,1.4c-1.7-1.8-2.1-4.5-2.4-6.9c-1-7.3,0.4-14.5-1.1-21.9
				c-0.7,6.5,0.2,11.4-3.3,15.5c-4,4.7-9.6,2.8-13.4-2c-1.9-2.3-3.4-6.5-4.4-10.3c1,5.3,1.6,10.7,1.8,16.1c0.1,2.5,0,5.3-1.9,6.9
				c-2.9,2.5-7.4,0.1-10.2-2.6c-7.9-7.6-11.2-17.3-16.5-27.5c1.8,5.5,3.8,10,5.7,15.5c0.5,1.6,2,9.5,0.8,10.7s-3.1,0.7-4.6,0.1
				c-4.7-1.9-10.5-8.2-13.9-13.1c6.4,9.8,13.2,19,20.1,28.3c1.8,2.5,2.3,7.1-0.6,8.1c-1.9,0.6-3.6-1.1-5.2-2.3
				c-14.4-11-25.4-20.5-34-29.1c9.9,11.9,19.9,23.5,23,26.8c5.7,6.1,29.6,28.7,29.6,28.7c1.6,8.2,9.9,17.8,9.9,17.8h5.9
				c-0.8-3.5-3.7-10.9-11.6-24.3c-0.7-1.2,12.8-8,22.8-8.8c14.3-1.2,21,1.6,22.7,2.2l-0.1,0.2c0,0,7.2,1.9,10.6,5.5
				c1.7,1.8,3.3,3.8,4.8,5.8C161.4,353.2,170.1,344.8,176.9,338.2z"/>
		</g>
		<path class="st3" d="M85.1,93.8c-0.2,0.1-0.5,0.2-0.8,0.2c-0.5,0.2-1.2,0.3-2.1,0.7c-2.6,0.9-5.1,2.2-7.4,3.7
			c-5.9,3.7-12.9,10.7-18.5,19.7c-4.8,7.7-8.4,16.2-10.5,25c-0.6,2.7-1.1,5.4-1.4,8.1c-0.1,1-0.2,1.7-0.2,2.2c0,0.3,0,0.5-0.1,0.8
			c0-0.3,0-0.5,0-0.8c0-0.5,0-1.3,0.1-2.3c0.2-2.8,0.7-5.5,1.3-8.2c2.1-8.9,5.6-17.4,10.5-25.2c5.7-9.1,12.7-16.1,18.7-19.8
			c2.3-1.5,4.9-2.7,7.5-3.5c0.7-0.2,1.4-0.4,2.2-0.5C84.6,93.9,84.9,93.9,85.1,93.8z"/>
		<path class="st3" d="M90.2,99.4c0.3-0.8,0.8-1.6,1.4-2.3c2.6-3.4,6.1-6,10.2-7.3c0.8-0.3,1.7-0.5,2.6-0.6
			c-2.8,0.9-5.5,2.2-7.9,3.9C94.1,94.9,92,97,90.2,99.4z"/>
		<path class="st3" d="M26.8,141.3c0-0.3,0-0.7,0.1-1c0.1-0.9,0.3-1.9,0.6-2.8c1.6-6.1,4.9-11.6,9.6-15.9c0.7-0.6,1.4-1.2,2.2-1.8
			c0.3-0.2,0.6-0.4,0.9-0.6c0,0.1-1.1,1-2.8,2.6c-2.2,2.2-4.1,4.6-5.8,7.2c-1.6,2.7-2.9,5.5-3.8,8.5
			C27.2,139.8,26.9,141.3,26.8,141.3z"/>
		<path class="st3" d="M7.7,169.9c0-2,0.4-3.9,1.2-5.8c0.6-1.9,1.6-3.6,2.9-5.1c0.1,0.1-1.3,2.3-2.4,5.3S7.8,169.9,7.7,169.9z"/>
		<path class="st3" d="M132.4,89.1c-1.8,0.4-3.6,1-5.3,1.8c-1.6,1-3.1,2.1-4.5,3.4C124.8,91,128.5,89,132.4,89.1z"/>
		<path class="st3" d="M164.9,95c-0.1,0.1-1.9-0.7-4.4-0.9s-4.4,0.2-4.5,0C158.9,93.1,162.2,93.4,164.9,95L164.9,95z"/>
		<ellipse class="st4" cx="123.8" cy="375.8" rx="21.6" ry="3.5"/>
		<path class="st4" d="M116.9,388.4c-0.8-0.5-1.5-1-2.1-1.6c-1.3-1-3-2.5-4.9-4.2c-3.8-3.3-6.8-6.1-6.6-6.3s0.2,0.1,0.6,0.4
			s1,0.8,1.5,1.3c1.3,1.1,3,2.5,4.9,4.2s3.6,3.2,4.8,4.3C115.7,387.1,116.3,387.7,116.9,388.4z"/>
		<path class="st4" d="M120.1,388.5c-1-1.6-1.9-3.3-2.6-5c-0.7-1.4-1.2-2.7-1.6-3.7c-0.3-0.5-0.4-1-0.6-1.6c0.2-0.1,1.3,2.2,2.7,5
			C118.9,384.9,119.6,386.7,120.1,388.5z"/>
		<path class="st4" d="M137.7,374.7c-1,2.4-2.1,4.7-3.3,7c-1.1,2.3-2.4,4.6-3.8,6.8c1-2.4,2.1-4.7,3.3-7
			C135,379.2,136.3,376.9,137.7,374.7z"/>
		<path class="st4" d="M134.1,388.4c1.4-2.4,3-4.6,4.7-6.8c1.6-2.3,3.3-4.4,5.1-6.5c-1.4,2.4-3,4.6-4.7,6.8
			C137.7,384.2,136,386.4,134.1,388.4z"/>
		<path class="st4" d="M137.9,410l-3.6-20.5c0-0.3-0.3-0.5-0.6-0.5c-9.1-0.1-15.3-0.1-16.7,0l-5.6,20.6l-1-0.3l5.7-21l0.2-0.1
			c0.2-0.2,0.4-0.4,17.4-0.1c0.8,0,1.4,0.6,1.6,1.4l3.6,20.5L137.9,410z"/>
		<path class="st4" d="M117.8,410.6h-1c0-0.3,2.1-17,2.8-22.1l1,0.1C119.9,394.5,117.9,410.1,117.8,410.6z"/>
		
			<rect x="130.5" y="388.5" transform="matrix(0.9994 -3.594604e-02 3.594604e-02 0.9994 -14.2565 4.967)" class="st4" width="1" height="20.9"/>
		<path class="st7" d="M108.9,411.2h31.7c0.7,0,1.3-0.6,1.3-1.3s-0.6-1.3-1.3-1.3h-31.7c-0.7,0-1.3,0.6-1.3,1.3
			S108.2,411.2,108.9,411.2z"/>
		<rect x="110.1" y="410.3" class="st7" width="29" height="18.2"/>
		<line class="st5" x1="129.1" y1="428.8" x2="110.4" y2="428.8"/>
		<path class="st8" d="M139,428.5c0,0.9-6.5,1.5-14.5,1.5s-14.5-0.7-14.5-1.5s6.5-1.6,14.5-1.6S139,427.6,139,428.5z"/>
		<path class="st8" d="M139.2,410.6c0,0.1-6.5,0.3-14.6,0.3s-14.6-0.1-14.6-0.3s6.5-0.3,14.6-0.3S139.2,410.4,139.2,410.6z"/>
	</g>
</g>
<text transform="matrix(1 0 0 1 33.4902 159)"><tspan x="0" y="0" class="st3 st11 st12">Disparition </tspan><tspan x="0" y="40.8" class="st3 st11 st12">total</tspan><tspan x="0" y="81.6" class="st3 st11 st12">des </tspan><tspan x="0" y="122.4" class="st3 st11 st12">glaciers !</tspan></text>
<text transform="matrix(1 0 0 1 273.1306 57.06)"><tspan x="0" y="0" class="st13 st11 st12">Au plus </tspan><tspan x="31.7" y="40.8" class="st13 st11 st12">tard</tspan><tspan x="42.5" y="81.6" class="st13 st11 st12">en </tspan><tspan x="26.9" y="122.4" class="st13 st11 st12">2026</tspan></text>
</svg>
