<svg xmlns="http://www.w3.org/2000/svg" xmlns:xlink="http://www.w3.org/1999/xlink" viewBox="0 0 195.55 462.15"><defs><style>.cls-1,.cls-11,.cls-14{fill:none;}.cls-2{isolation:isolate;}.cls-3{fill:url(#Degradado_sin_nombre_129);}.cls-4{fill:url(#Degradado_sin_nombre_144);}.cls-5{fill:url(#Degradado_sin_nombre_106);}.cls-6{fill:url(#Degradado_sin_nombre_92);}.cls-7{fill:#fff;opacity:0.33;}.cls-11,.cls-13,.cls-14,.cls-22,.cls-23,.cls-7{mix-blend-mode:soft-light;}.cls-8{fill:url(#Degradado_sin_nombre_92-2);}.cls-9{fill:url(#Degradado_sin_nombre_36);}.cls-10{fill:url(#Degradado_sin_nombre_36-2);}.cls-11,.cls-14{stroke:#000;stroke-miterlimit:10;stroke-width:1.89px;}.cls-11{opacity:0.09;}.cls-12{fill:url(#Degradado_sin_nombre_13);}.cls-13{fill:url(#Degradado_sin_nombre_126);}.cls-15{fill:url(#Degradado_sin_nombre_92-3);}.cls-16{clip-path:url(#clip-path);}.cls-17{fill:url(#Degradado_sin_nombre_159);}.cls-18{fill:url(#Degradado_sin_nombre_159-2);}.cls-19{fill:url(#Degradado_sin_nombre_92-4);}.cls-20{opacity:0.48;}.cls-21{clip-path:url(#clip-path-2);}.cls-22{fill:url(#Degradado_sin_nombre_126-2);}.cls-23{fill:url(#Degradado_sin_nombre_126-3);}.cls-24{font-size:24px;font-family:Poppins-SemiBold, Poppins;font-weight:600;}</style><linearGradient id="Degradado_sin_nombre_129" x1="-94.51" y1="394.59" x2="8.72" y2="297.35" gradientTransform="translate(-131.94 126.63) rotate(-45.52)" gradientUnits="userSpaceOnUse"><stop offset="0" stop-color="#ff8533"/><stop offset="1" stop-color="#ffd052"/></linearGradient><linearGradient id="Degradado_sin_nombre_144" x1="-47.33" y1="350.53" x2="16.3" y2="287.93" gradientTransform="translate(-131.94 126.63) rotate(-45.52)" gradientUnits="userSpaceOnUse"><stop offset="0" stop-color="#ffd052"/><stop offset="1" stop-color="#ffe9ae"/></linearGradient><linearGradient id="Degradado_sin_nombre_106" x1="71.5" y1="319.01" x2="11.93" y2="221.64" gradientTransform="translate(-131.94 146.83) rotate(-45.52)" gradientUnits="userSpaceOnUse"><stop offset="0" stop-color="#767b7f"/><stop offset="1" stop-color="#a3a3a3"/></linearGradient><linearGradient id="Degradado_sin_nombre_92" x1="-17.36" y1="214.15" x2="78.1" y2="323.25" gradientTransform="translate(-131.94 126.63) rotate(-45.52)" gradientUnits="userSpaceOnUse"><stop offset="0" stop-color="#f02e54"/><stop offset="1" stop-color="#8f1931"/></linearGradient><linearGradient id="Degradado_sin_nombre_92-2" x1="83.68" y1="349.56" x2="53" y2="194.96" xlink:href="#Degradado_sin_nombre_92"/><linearGradient id="Degradado_sin_nombre_36" x1="111.68" y1="119.15" x2="182.3" y2="285.94" gradientTransform="translate(-131.94 126.63) rotate(-45.52)" gradientUnits="userSpaceOnUse"><stop offset="0" stop-color="#eef4fa"/><stop offset="1" stop-color="#cddeed"/></linearGradient><linearGradient id="Degradado_sin_nombre_36-2" x1="121.32" y1="137.64" x2="181.23" y2="279.14" xlink:href="#Degradado_sin_nombre_36"/><linearGradient id="Degradado_sin_nombre_13" x1="8.65" y1="205.89" x2="72.39" y2="284.54" gradientTransform="translate(-131.94 126.63) rotate(-45.52)" gradientUnits="userSpaceOnUse"><stop offset="0" stop-color="#c7c7c7"/><stop offset="1" stop-color="#a3a3a3"/></linearGradient><linearGradient id="Degradado_sin_nombre_126" x1="55.02" y1="244.42" x2="68.06" y2="284.64" gradientTransform="translate(-131.94 146.83) rotate(-45.52)" gradientUnits="userSpaceOnUse"><stop offset="0" stop-color="#1d262d"/><stop offset="1" stop-color="#1d262d" stop-opacity="0"/></linearGradient><linearGradient id="Degradado_sin_nombre_92-3" x1="196.03" y1="75.5" x2="327.83" y2="181.21" xlink:href="#Degradado_sin_nombre_92"/><clipPath id="clip-path" transform="translate(0 20.19)"><path class="cls-1" d="M117.44,34.69C92.29,1,79.6,0,79.6,0s-12.66,1.38-37,35.77c-25.69,36.31-25.95,75.11-25.86,101.8.12,34.53,11.6,102.58,32.12,149.56l34.19-.67,34.18-.31c19.38-47.56,29.22-115.9,28.5-150.43C145.2,109,144,70.26,117.44,34.69Z"/></clipPath><linearGradient id="Degradado_sin_nombre_159" x1="364.32" y1="304.6" x2="120.32" y2="51.6" gradientTransform="translate(-132.84 122.49) rotate(-44.41)" gradientUnits="userSpaceOnUse"><stop offset="0" stop-color="#8f1931"/><stop offset="1" stop-color="#f02e54"/></linearGradient><linearGradient id="Degradado_sin_nombre_159-2" x1="356.9" y1="311.76" x2="112.9" y2="58.76" gradientTransform="translate(-132.64 122.47) rotate(-44.41)" xlink:href="#Degradado_sin_nombre_159"/><linearGradient id="Degradado_sin_nombre_92-4" x1="6.94" y1="245.84" x2="81.67" y2="352.73" xlink:href="#Degradado_sin_nombre_92"/><clipPath id="clip-path-2" transform="translate(0 20.19)"><path class="cls-1" d="M117.44,34.69C92.29,1,79.6,0,79.6,0s-12.66,1.38-37,35.77c-25.69,36.31-25.95,75.11-25.86,101.8.09,27.55,7.42,76.44,20.81,118.94a311.59,311.59,0,0,0,11.31,30.62l34.19-.67,34.18-.31c19.38-47.56,29.22-115.9,28.5-150.43C145.2,109,144,70.26,117.44,34.69Z"/></clipPath><linearGradient id="Degradado_sin_nombre_126-2" x1="288.05" y1="263.02" x2="143.63" y2="172.84" gradientTransform="translate(-131.94 126.63) rotate(-45.52)" xlink:href="#Degradado_sin_nombre_126"/><linearGradient id="Degradado_sin_nombre_126-3" x1="81.42" y1="257.51" x2="96.37" y2="290.99" gradientTransform="translate(-131.94 126.63) rotate(-45.52)" xlink:href="#Degradado_sin_nombre_126"/></defs><title>Fichier 6fusée_section-qautre</title><g class="cls-2"><g id="Calque_2" data-name="Calque 2"><g id="OBJECTS"><path class="cls-3" d="M84.2,325.08s-58.89,27.4-25.79,78.15l7.18-11s1.8,22.87,21.49,49.69c18.34-27.75,19-50.69,19-50.69l7.7,10.6C144.36,349.55,84.2,325.08,84.2,325.08Z" transform="translate(0 20.19)"/><path class="cls-4" d="M84.2,325.08s-36.73,17.09-16.09,48.75L72.59,367s1.12,14.27,13.4,31c11.45-17.31,11.87-31.62,11.87-31.62l4.8,6.61C121.73,340.35,84.2,325.08,84.2,325.08Z" transform="translate(0 20.19)"/><polygon class="cls-5" points="112.17 312.49 53.8 313.33 53.6 297.11 111.97 296.27 112.17 312.49"/><path class="cls-6" d="M28.77,224.42S-.26,249.92,0,272.35c.29,24.2,5.37,49,18.78,78.16,7.16,15.57,6.62-7.5,7.14-21.94.9-25.29,7.6-31.61,23-41.44C48.88,287.13,41.61,266.55,28.77,224.42Z" transform="translate(0 20.19)"/><path class="cls-7" d="M28.77,224.42S-.26,249.92,0,272.35c.29,24.2,5.37,49,18.78,78.16,1.35,2.92,2.42,4.48,3.28,5,0,0-15.63-38.34-16.31-64.2s2.75-39.28,23-66.88" transform="translate(0 20.19)"/><path class="cls-8" d="M135.84,222.89s29.64,24.66,29.92,47.08c.3,24.2-4.18,49.13-16.89,78.68-6.78,15.76-6.79-7.32-7.66-21.74-1.52-25.25-8.36-31.38-24-40.76C117.25,286.15,124,265.36,135.84,222.89Z" transform="translate(0 20.19)"/><path class="cls-9" d="M117.44,34.69C92.29,1,79.6,0,79.6,0s-12.66,1.38-37,35.77c-25.69,36.31-25.95,75.11-25.86,101.8.12,34.53,11.6,102.58,32.12,149.56l34.19-.67,34.18-.31c19.38-47.56,29.22-115.9,28.5-150.43C145.2,109,144,70.26,117.44,34.69Z" transform="translate(0 20.19)"/><path class="cls-10" d="M57.55,287l25.52-.5,34.18-.31c19.38-47.56,29.22-115.9,28.5-150.43-.55-26.68-1.76-65.46-28.31-101C92.29,1,79.6,0,79.6,0" transform="translate(0 20.19)"/><line class="cls-11" x1="53.72" y1="307.23" x2="112.23" y2="306.39"/><path class="cls-12" d="M48.88,287.13l34.19-.67,34.18-.31a309.48,309.48,0,0,0,10.57-30.94L37.58,256.5A310.86,310.86,0,0,0,48.88,287.13Z" transform="translate(0 20.19)"/><polygon class="cls-13" points="84.24 250.73 117.25 306.34 111.73 307.53 112.17 312.49 89.5 312.82 84.24 250.73"/><line class="cls-14" x1="25.44" y1="89.66" x2="135.42" y2="88.08"/><path class="cls-15" d="M79.6,0s-12.66,1.38-37,35.77a131.55,131.55,0,0,0-17.18,33.7l110-1.58a130.84,130.84,0,0,0-18-33.2C92.29,1,79.6,0,79.6,0Z" transform="translate(0 20.19)"/><g class="cls-16"><rect class="cls-17" x="15.74" y="74.95" width="131.77" height="5.68" transform="translate(-1.49 21.79) rotate(-1.11)"/><rect class="cls-18" x="17.06" y="86.22" width="131.77" height="3.78" transform="translate(-1.69 21.81) rotate(-1.11)"/></g><line class="cls-11" x1="37.57" y1="276.7" x2="127.82" y2="275.4"/><path class="cls-19" d="M82.37,229.17s-6.46-1.33-5.87,47.77,3.71,93.56,7.58,93.5S90,325.87,89.4,276.76,82.37,229.17,82.37,229.17Z" transform="translate(0 20.19)"/><path class="cls-7" d="M82.37,229.17s-6.46-1.33-5.87,47.77,3.71,93.56,7.58,93.5c0,0-3.14-16.65-4.67-54.57S77.17,235.5,82.37,229.17Z" transform="translate(0 20.19)"/><path class="cls-7" d="M79.6,0s-12.66,1.38-37,35.77c-25.69,36.31-25.95,75.11-25.86,101.8.12,34.53,11.6,102.58,32.12,149.56h0S-21.45,94.22,79.6,0Z" transform="translate(0 20.19)"/><polygon class="cls-7" points="55.94 307.16 55.94 313.29 53.8 313.33 53.72 307.23 55.94 307.16"/><g class="cls-20"><g class="cls-21"><path class="cls-22" d="M117.25,286.15S177,97.79,79.6,0L130-20.19,195.55,274.9S163.4,289.84,117.25,286.15Z" transform="translate(0 20.19)"/></g></g><path class="cls-23" d="M117.25,286.15l11.48,6.39s11.83-35.9,7.11-69.65h0S125.6,265.42,117.25,286.15Z" transform="translate(0 20.19)"/><path class="cls-7" d="M142.75,332.71c0-14.59-4.28-24.29-5.15-26.09a16.81,16.81,0,0,1,.86,2.63,76.72,76.72,0,0,1,2.75,17.66c.56,9.32.77,22.25,2.67,26,.43.77.91,1.06,1.42,1h0S142.72,348.9,142.75,332.71Z" transform="translate(0 20.19)"/><text y="20.19"/><text class="cls-24" transform="translate(33.66 143.9)">+ 60 cm<tspan x="-14.68" y="28.8">du niveau </tspan><tspan x="16.31" y="57.6">de la </tspan><tspan x="24.2" y="86.4">mer</tspan></text></g></g></g></svg>