<svg width="24" height="24" viewBox="0 0 24 24" fill="none" xmlns="http://www.w3.org/2000/svg">
<path d="M0.91725 1.1155C1.61291 0.419835 2.74043 0.419835 3.43571 1.1155L11.8308 9.5106L20.2258 1.1155C20.9215 0.419835 22.049 0.419835 22.7443 1.1155C23.4399 1.81116 23.4399 2.93868 22.7443 3.63397L14.3492 12.0291L22.7443 20.4242C23.4399 21.1198 23.4399 22.2474 22.7443 22.9427C22.0486 23.6383 20.9211 23.6379 20.2258 22.9427L11.8308 14.5476L3.43571 22.9427C2.74006 23.6379 1.61254 23.6379 0.91725 22.9427C0.221594 22.247 0.221594 21.1195 0.91725 20.4242L9.3123 12.0291L0.91725 3.63397C0.221594 2.93831 0.221594 1.81079 0.91725 1.1155Z" fill="#404A9A"/>
</svg>
