<svg width="544" height="111" viewBox="0 0 544 111" fill="none" xmlns="http://www.w3.org/2000/svg">
<line x1="0.878906" y1="108.848" x2="541.45" y2="108.848" stroke="white" stroke-width="3"/>
<path d="M12.3567 38.5667V25.6355H16.7238C20.8641 25.6355 21.9984 26.4295 23.3596 29.2653L27.8968 38.5667H40.2041L35.4967 29.0384C34.0788 26.1459 32.8311 24.2743 28.9177 23.2534V22.6863C36.1773 21.7788 39.1832 18.2057 39.1832 12.1939C39.1832 4.76412 33.9087 0.567156 23.87 0.567156H1.69419V38.5667H12.3567ZM12.3567 10.1521H23.7566C26.8759 10.1521 28.0103 10.8894 28.0103 13.8953C28.0103 17.1281 26.8759 17.6953 23.7566 17.6953H12.3567V10.1521Z" fill="white"/>
<path d="M75.6505 38.5667V28.9817H52.5673V24.2176H74.7998V14.6894H52.5673V10.1521H75.6505V0.567156H41.9047V38.5667H75.6505Z" fill="white"/>
<path d="M95.299 39.1338C108.344 39.1338 113.164 33.4622 113.164 22.8564V0.567156H101.821V22.743C101.821 27.4504 101.368 28.8116 95.299 28.8116C89.1737 28.8116 88.8901 27.337 88.8901 22.1758V20.8146H77.547V22.2893C77.547 33.2921 82.3111 39.1338 95.299 39.1338Z" fill="white"/>
<path d="M136.818 39.1338C150.373 39.1338 158.087 31.4205 158.087 19.5669C158.087 7.71333 150.373 0 136.818 0C123.604 0 115.777 7.71333 115.777 19.5669C115.777 31.4205 123.604 39.1338 136.818 39.1338ZM136.818 28.925C129.105 28.925 127.12 27.1101 127.12 19.5669C127.12 12.0237 129.105 10.2088 136.818 10.2088C144.532 10.2088 146.744 12.0237 146.744 19.5669C146.744 27.1101 144.532 28.925 136.818 28.925Z" fill="white"/>
<path d="M171.593 38.5667V0.567156H160.93V38.5667H171.593Z" fill="white"/>
<path d="M193.374 39.1338C202.278 39.1338 205.511 34.8801 206.532 30.4563H207.099V38.5667H217.024V17.8087H194.565V25.6355H206.249C205.738 28.528 203.469 28.925 195.586 28.925C187.873 28.925 185.774 27.1101 185.774 19.5669C185.774 12.0237 187.986 10.2088 196.153 10.2088C202.902 10.2088 205.057 11.57 205.057 15.0864V15.4834H216.968V15.0864C216.968 5.67156 209.311 0 196.437 0C182.598 0 174.431 7.71333 174.431 19.5669C174.431 31.4205 181.407 39.1338 193.374 39.1338Z" fill="white"/>
<path d="M230.856 38.5667V23.7071L230.402 16.4475H231.14L235.96 23.934L247.19 38.5667H258.533V0.567156H247.871V15.2565L248.381 23.537H247.644L242.086 14.8028L231.537 0.567156H220.193V38.5667H230.856Z" fill="white"/>
<path d="M272.617 38.5667V0.567156H261.955V38.5667H272.617Z" fill="white"/>
<path d="M309.769 38.5667V28.9817H286.686V24.2176H308.918V14.6894H286.686V10.1521H309.769V0.567156H276.023V38.5667H309.769Z" fill="white"/>
<path d="M349.211 38.5667V28.9817H327.716V28.2444L348.871 10.1521V0.567156H312.856V10.1521H332.763V10.8894L312.516 28.9817V38.5667H349.211Z" fill="white"/>
<path d="M376.223 26.2594V17.1848H352.345V26.2594H376.223Z" fill="white"/>
<path d="M390.313 38.5667V23.7071L389.86 16.4475H390.597L395.418 23.934L406.648 38.5667H417.991V0.567156H407.328V15.2565L407.839 23.537H407.101L401.543 14.8028L390.994 0.567156H379.651V38.5667H390.313Z" fill="white"/>
<path d="M441.887 39.1338C455.442 39.1338 463.155 31.4205 463.155 19.5669C463.155 7.71333 455.442 0 441.887 0C428.672 0 420.845 7.71333 420.845 19.5669C420.845 31.4205 428.672 39.1338 441.887 39.1338ZM441.887 28.925C434.173 28.925 432.188 27.1101 432.188 19.5669C432.188 12.0237 434.173 10.2088 441.887 10.2088C449.6 10.2088 451.812 12.0237 451.812 19.5669C451.812 27.1101 449.6 28.925 441.887 28.925Z" fill="white"/>
<path d="M485.168 39.1338C498.44 39.1338 504.565 32.7249 504.565 22.6295V0.567156H493.902V21.7788C493.902 27.1668 492.371 28.8116 485.168 28.8116C477.965 28.8116 476.434 27.1668 476.434 21.7788V0.567156H465.771V22.6295C465.771 32.7249 471.897 39.1338 485.168 39.1338Z" fill="white"/>
<path d="M526.192 39.1338C539.01 39.1338 544.001 33.3488 544.001 26.8265C544.001 21.949 541.505 17.1848 532.204 15.8237L520.294 14.0655C518.252 13.7819 517.571 13.2147 517.571 12.0237C517.571 10.379 518.762 9.64166 524.207 9.64166C531.353 9.64166 532.544 10.5491 532.544 13.2715V14.1222H543.207V13.7819C543.207 5.27456 537.422 0 525.341 0C511.616 0 506.909 6.35215 506.909 12.4207C506.909 18.546 510.482 22.346 517.571 23.3101L529.482 24.8982C532.601 25.2952 533.338 25.8623 533.338 27.2235C533.338 28.925 532.658 29.4354 526.192 29.4354C519.046 29.4354 518.139 28.7548 518.139 26.2026V25.0116H507.476V25.3519C507.476 34.9936 514.565 39.1338 526.192 39.1338Z" fill="white"/>
<path d="M27.3192 98.827C44.8942 98.827 51.7376 90.836 51.7376 81.8265C51.7376 75.0889 48.3159 68.5081 35.5623 66.6278L19.2316 64.1992C16.432 63.8074 15.4988 63.024 15.4988 61.3788C15.4988 59.1068 17.1319 58.0883 24.5974 58.0883C34.3959 58.0883 36.0289 59.3418 36.0289 63.1023V64.2775H50.6489V63.8074C50.6489 52.0559 42.7168 44.7699 26.1527 44.7699C7.33345 44.7699 0.878906 53.5444 0.878906 61.9272C0.878906 70.3883 5.77814 75.6373 15.4988 76.9692L31.8296 79.1628C36.1067 79.7112 37.1177 80.4946 37.1177 82.3749C37.1177 84.7252 36.1845 85.4303 27.3192 85.4303C17.5207 85.4303 16.2765 84.4902 16.2765 80.9647V79.3195H1.65656V79.7895C1.65656 93.108 11.3773 98.827 27.3192 98.827Z" fill="white"/>
<path d="M81.4902 98.827C99.6874 98.827 108.086 89.9742 108.086 76.029V45.5534H93.4661V74.8539C93.4661 82.2965 91.3664 84.5685 81.4902 84.5685C71.614 84.5685 69.5143 82.2965 69.5143 74.8539V45.5534H54.8944V76.029C54.8944 89.9742 63.2931 98.827 81.4902 98.827Z" fill="white"/>
<path d="M127.086 98.0436V80.1813H133.074C138.751 80.1813 140.306 81.2781 142.173 85.1953L148.394 98.0436H165.269L158.815 84.8819C156.871 80.8863 155.16 78.301 149.794 76.8908V76.1074C159.748 74.8539 163.869 69.9182 163.869 61.6138C163.869 51.3508 156.637 45.5534 142.873 45.5534H112.466V98.0436H127.086ZM127.086 58.7934H142.717C146.994 58.7934 148.55 59.8119 148.55 63.9641C148.55 68.4297 146.994 69.2131 142.717 69.2131H127.086V58.7934Z" fill="white"/>
<path d="M210.345 98.0436V58.7934H228.697V45.5534H177.294V58.7934H195.725V98.0436H210.345Z" fill="white"/>
<path d="M263.179 98.0436L269.4 75.559L273.055 59.1068H274.066L277.488 75.559L282.932 98.0436H304.628L316.526 45.5534H300.507L295.607 72.2685L294.052 84.0984H293.041L291.175 72.2685L284.798 45.5534H262.79L255.791 72.2685L253.692 84.0984H252.681L251.281 72.2685L246.926 45.5534H230.595L241.483 98.0436H263.179Z" fill="white"/>
<path d="M334.183 98.0436V45.5534H319.563V98.0436H334.183Z" fill="white"/>
<path d="M370.736 98.0436V58.7934H389.089V45.5534H337.686V58.7934H356.116V98.0436H370.736Z" fill="white"/>
<path d="M420.616 98.827C438.113 98.827 448.611 90.4443 448.611 76.4208V75.0889H432.28V76.4208C432.28 82.3749 429.481 84.7252 420.849 84.7252C410.273 84.7252 407.395 82.2182 407.395 71.7985C407.395 61.3788 410.273 58.8718 420.849 58.8718C429.481 58.8718 432.28 61.2221 432.28 67.1762V68.5081H448.611V67.1762C448.611 53.1527 438.113 44.7699 420.616 44.7699C402.496 44.7699 391.842 55.4247 391.842 71.7985C391.842 88.1723 402.496 98.827 420.616 98.827Z" fill="white"/>
<path d="M467.083 98.0436V78.301H491.346V98.0436H505.966V45.5534H491.346V65.0609H467.083V45.5534H452.463V98.0436H467.083Z" fill="white"/>
<path d="M540.314 80.808C540.314 75.559 542.336 57.0699 542.336 51.0374V45.5534H523.361V51.0374C523.361 57.0699 525.383 75.4806 525.383 80.808H540.314ZM541.17 98.0436V84.1768H524.45V98.0436H541.17Z" fill="white"/>
</svg>
